<?xml version="1.0" encoding="UTF-8" ?>
<!DOCTYPE svg PUBLIC "-//W3C//DTD SVG 1.1//EN" "http://www.w3.org/Graphics/SVG/1.1/DTD/svg11.dtd">
<svg width="280pt" height="280pt" viewBox="0 0 280 280" version="1.1" xmlns="http://www.w3.org/2000/svg">
<path fill="#ffffff" d=" M 0.00 0.00 L 280.00 0.00 L 280.00 280.00 L 271.00 280.00 C 271.02 269.51 270.96 258.68 267.23 248.73 C 264.74 241.94 258.94 236.62 252.01 234.60 C 228.13 228.45 204.26 222.26 180.44 215.87 C 180.47 209.24 180.31 202.61 180.38 195.99 C 180.11 193.92 181.67 192.43 182.81 190.95 C 190.83 181.44 196.26 169.88 199.05 157.80 C 203.99 159.55 208.78 156.70 211.72 152.82 C 215.96 147.51 218.67 140.86 218.60 134.00 C 218.51 128.57 218.98 122.75 216.43 117.77 C 215.07 115.00 212.02 113.96 209.31 113.02 C 210.11 97.69 211.96 82.33 211.18 66.95 C 210.28 62.53 205.97 59.87 204.77 55.54 C 206.33 56.57 207.85 57.65 209.36 58.74 C 207.49 53.10 206.04 47.17 203.05 41.99 C 197.34 37.17 189.45 36.55 182.34 37.72 C 177.64 28.63 168.88 22.24 159.57 18.47 C 150.33 17.57 141.09 19.47 131.86 19.77 C 134.06 20.45 136.24 21.18 138.40 21.99 C 134.76 23.61 130.75 22.34 126.98 21.96 C 120.45 20.72 114.08 23.24 107.90 25.02 C 101.06 27.35 94.23 29.96 87.97 33.62 C 90.77 33.33 93.55 32.86 96.33 32.40 C 94.50 35.06 91.25 35.99 88.72 37.79 C 81.60 42.56 75.07 48.94 72.05 57.12 C 70.52 75.68 71.07 94.45 73.81 112.89 C 71.55 113.80 69.00 114.41 67.32 116.30 C 64.56 119.23 64.48 123.53 64.27 127.32 C 64.29 132.86 63.67 138.66 65.86 143.90 C 67.98 149.26 71.20 154.70 76.49 157.41 C 78.68 158.64 81.24 158.18 83.63 158.17 C 85.99 167.57 89.58 176.75 95.13 184.74 C 97.18 188.09 99.97 190.90 102.08 194.20 C 102.66 201.44 102.17 208.75 102.23 216.02 C 81.16 221.52 60.09 227.05 39.03 232.61 C 33.20 234.05 26.90 235.07 22.22 239.17 C 15.25 244.92 13.16 254.34 12.39 262.92 C 11.61 268.59 11.90 274.32 11.32 280.00 L 0.00 280.00 L 0.00 0.00 Z" />
<path fill="#aaaaac" d=" M 131.86 19.77 C 141.09 19.47 150.33 17.57 159.57 18.47 C 168.88 22.24 177.64 28.63 182.34 37.72 C 189.45 36.55 197.34 37.17 203.05 41.99 C 206.04 47.17 207.49 53.10 209.36 58.74 C 207.85 57.65 206.33 56.57 204.77 55.54 C 205.97 59.87 210.28 62.53 211.18 66.95 C 211.96 82.33 210.11 97.69 209.31 113.02 C 212.02 113.96 215.07 115.00 216.43 117.77 C 218.98 122.75 218.51 128.57 218.60 134.00 C 218.67 140.86 215.96 147.51 211.72 152.82 C 208.78 156.70 203.99 159.55 199.05 157.80 C 196.26 169.88 190.83 181.44 182.81 190.95 C 181.67 192.43 180.11 193.92 180.38 195.99 C 180.31 202.61 180.47 209.24 180.44 215.87 C 204.26 222.26 228.13 228.45 252.01 234.60 C 258.94 236.62 264.74 241.94 267.23 248.73 C 270.96 258.68 271.02 269.51 271.00 280.00 L 11.32 280.00 C 11.90 274.32 11.61 268.59 12.39 262.92 C 13.16 254.34 15.25 244.92 22.22 239.17 C 26.90 235.07 33.20 234.05 39.03 232.61 C 60.09 227.05 81.16 221.52 102.23 216.02 C 102.17 208.75 102.66 201.44 102.08 194.20 C 99.97 190.90 97.18 188.09 95.13 184.74 C 89.58 176.75 85.99 167.57 83.63 158.17 C 81.24 158.18 78.68 158.64 76.49 157.41 C 71.20 154.70 67.98 149.26 65.86 143.90 C 63.67 138.66 64.29 132.86 64.27 127.32 C 64.48 123.53 64.56 119.23 67.32 116.30 C 69.00 114.41 71.55 113.80 73.81 112.89 C 71.07 94.45 70.52 75.68 72.05 57.12 C 75.07 48.94 81.60 42.56 88.72 37.79 C 91.25 35.99 94.50 35.06 96.33 32.40 C 93.55 32.86 90.77 33.33 87.97 33.62 C 94.23 29.96 101.06 27.35 107.90 25.02 C 114.08 23.24 120.45 20.72 126.98 21.96 C 130.75 22.34 134.76 23.61 138.40 21.99 C 136.24 21.18 134.06 20.45 131.86 19.77 Z" />
</svg>
