<?xml version="1.0" encoding="UTF-8"?>
<svg width="162px" height="162px" viewBox="0 0 162 162" version="1.1" xmlns="http://www.w3.org/2000/svg" xmlns:xlink="http://www.w3.org/1999/xlink">
    <!-- Generator: Sketch 41.2 (35397) - http://www.bohemiancoding.com/sketch -->
    <title>Group 2</title>
    <desc>Created with Sketch.</desc>
    <defs></defs>
    <g id="Page-1" stroke="none" stroke-width="1" fill="none" fill-rule="evenodd">
        <g id="Group-2" transform="translate(2.000000, 2.000000)" stroke="#D4D4D4">
            <path d="M79,158 C122.630495,158 158,122.630495 158,79 C158,52.7588448 145.205757,29.5059451 125.514991,15.1390209 C125.514991,15.0500835 32.6071476,15.1390209 32.6071476,15.0500835 C12.8471664,29.4098715 0,52.7046275 0,79 C0,122.630495 35.3695048,158 79,158 Z" id="Oval-6" stroke-width="3" stroke-linecap="square" stroke-linejoin="round" fill-opacity="0" fill="#D8D8D8"></path>
            <path d="M77.5447368,82.7421053 C82.8263231,82.7421053 87.7315789,77.0392496 87.7315789,73.5947368 C87.7315789,70.1502241 82.8263231,68.1894737 77.5447368,68.1894737 C72.2631506,68.1894737 67.3578947,70.1502241 67.3578947,73.5947368 C67.3578947,77.0392496 72.2631506,82.7421053 77.5447368,82.7421053 Z" id="Oval-9" fill="#D4D4D4"></path>
            <path d="M95.341553,88.1473684 C97.867529,88.1473684 99.7894737,85.962826 99.7894737,83.2072158 C99.7894737,80.4516056 93.5526316,77.3368421 91.8894737,78.5842105 C90.2263158,79.8315789 90.2263158,80.3799357 90.2263158,83.2241784 C90.2263158,86.0684211 92.8155769,88.1473684 95.341553,88.1473684 Z" id="Oval-8" fill="#D4D4D4"></path>
            <path d="M31.6,133.04639 C38.6684211,144.272705 44.9052632,128.472705 44.9052632,128.472705 C44.9052632,128.472705 53.2210526,114.335863 62.3684211,134.709548 C62.3684211,134.709548 67.3578947,146.351653 73.5947368,125.562179 C73.5947368,125.562179 81.0789474,107.267442 88.9789474,131.383232 C88.9789474,131.383232 93.5526316,144.272705 100.205263,130.967442 C100.205263,130.967442 107.689474,115.583232 117.252632,130.967442 C117.252632,130.967442 122.657895,142.609548 128.894737,130.967442 C135.131579,119.325337 142.615789,125.562179 142.615789,125.562179 C142.615789,125.562179 116.421053,157.993758 82.7421053,157.993758 C49.0631579,157.993758 34.0947368,145.942105 29.1052632,142.615789 C24.1157895,139.289474 15.8,128.472705 15.8,128.472705 C15.8,128.472705 24.5315789,121.820074 31.6,133.04639 Z" id="Path-4" fill="#D4D4D4"></path>
            <path d="M55.9490923,14.3242946 C55.9490923,14.3242946 55.9490923,71.7404004 55.5333028,71.7404004 C50.9596186,71.7404004 42.6438291,83.7193002 55.5333028,89.0891518 C55.5333028,89.0891518 52.206987,109.329362 75.4911976,101.068052 C78.1684211,106.024838 93.7859344,111.394689 96.6964607,92.8067414 C100.438566,91.1544794 111.664882,85.3715623 100.438566,71.7404004 L100.438566,14.3242946 L55.9490923,14.3242946 Z" id="Path-3" stroke-width="4" stroke-linejoin="round"></path>
            <path d="M133.140582,0.00245300884 C133.205484,0.000820925055 133.270588,0 133.335884,0 C137.542497,0 140.952632,3.40722931 140.952632,7.61025966 C140.952632,11.81329 137.542497,15.2205193 133.335884,15.2205193 C133.270588,15.2205193 133.205484,15.2196984 133.140582,15.2180663 L133.140582,15.2205193 L24.5530969,15.2205193 L24.5530969,15.2180663 C20.4367409,15.1145527 17.1316501,11.7480501 17.1316501,7.61025966 C17.1316501,3.47246926 20.4367409,0.105966591 24.5530969,0.00245300884 L24.5530969,0 L133.140582,0 L133.140582,0.00245300884 Z" id="Combined-Shape" stroke-width="3" fill="#FAFAFA"></path>
            <path d="M103.739474,88.7710526 L106.857895,90.6421053" id="Line" stroke-width="4" stroke-linecap="round" stroke-linejoin="round"></path>
            <path d="M91.6815789,105.402632 L93.1368421,108.521053" id="Line-Copy-2" stroke-width="4" stroke-linecap="round" stroke-linejoin="round"></path>
            <path d="M60.4973684,103.323684 L59.4578947,106.857895" id="Line-Copy-3" stroke-width="4" stroke-linecap="round" stroke-linejoin="round"></path>
            <path d="M48.8552632,83.3657895 L45.3210526,86.0684211" id="Line-Copy-4" stroke-width="4" stroke-linecap="round" stroke-linejoin="round"></path>
            <path d="M40.9552632,101.244737 L45.3210526,106.857895" id="Line" stroke-width="4" stroke-linecap="round"></path>
            <path d="M113.510526,98.5421053 L106.857895,105.194737" id="Line-Copy" stroke-width="4" stroke-linecap="round"></path>
            <path d="M60.7052632,86.0750326 C63.2312392,86.0750326 65.2789474,81.7622218 65.2789474,79.0066115 C65.2789474,76.2510013 63.2312392,76.5118747 60.7052632,76.5118747 C58.1792871,76.5118747 56.1315789,78.3299487 56.1315789,81.0855589 C56.1315789,83.8411691 58.1792871,86.0750326 60.7052632,86.0750326 Z" id="Oval-7" fill="#D4D4D4"></path>
            <path d="M84.1973684,97.8357283 C88.3552632,97.8357283 89.3947368,93.107128 89.3947368,90.3515178 C89.3947368,87.5959076 85.6526316,84.1146757 82.7421053,84.9462546 C79.8315789,85.7778336 79,88.5846272 79,91.3402375 C79,94.0958477 80.0394737,97.8357283 84.1973684,97.8357283 Z" id="Oval-7-Copy" fill="#D4D4D4"></path>
            <path d="M68.8131579,97.2947368 C73.3868421,98.1263158 74.4263158,92.7210526 74.4263158,90.5086585 C74.4263158,88.2962644 73.5947368,85.6526316 69.8526316,84.8210526 C66.1105263,83.9894737 63.2,88.2415921 63.2,90.9972023 C63.2,93.7528125 64.2394737,96.4631579 68.8131579,97.2947368 Z" id="Oval-7-Copy-2" fill="#D4D4D4"></path>
        </g>
    </g>
</svg>