<?xml version="1.0" encoding="UTF-8"?>
<svg width="288px" height="289px" viewBox="0 0 288 289" version="1.1" xmlns="http://www.w3.org/2000/svg" xmlns:xlink="http://www.w3.org/1999/xlink">
    <!-- Generator: Sketch 42 (36781) - http://www.bohemiancoding.com/sketch -->
    <title>Group 9</title>
    <desc>Created with Sketch.</desc>
    <defs>
        <polygon id="path-1" points="0 288.080855 0 0.25807988 287.863878 0.25807988 287.863878 288.080855"></polygon>
        <linearGradient x1="50%" y1="2.03284439%" x2="50%" y2="95.8616509%" id="linearGradient-3">
            <stop stop-color="#F4F4F4" offset="0%"></stop>
            <stop stop-color="#EBF0EE" offset="100%"></stop>
        </linearGradient>
        <polygon id="path-4" points="25.1407063 25.13748 0 25.13748 0 0.000363415931 25.1407063 0.000363415931"></polygon>
        <polygon id="path-6" points="13.7131125 13.7113527 0 13.7113527 0 0.000198226872 13.7131125 0.000198226872"></polygon>
    </defs>
    <g id="Page-1" stroke="none" stroke-width="1" fill="none" fill-rule="evenodd">
        <g id="Group-9">
            <g id="Group-7">
                <g id="Page-1">
                    <g id="Group-3" transform="translate(0.000000, 0.054567)">
                        <mask id="mask-2" fill="white">
                            <use xlink:href="#path-1"></use>
                        </mask>
                        <g id="Clip-2"></g>
                        <path d="M287.865034,144.168311 C287.865034,223.649358 223.425492,288.082011 143.930782,288.082011 C64.4406985,288.082011 -0.00115648855,223.649358 -0.00115648855,144.168311 C-0.00115648855,64.6872645 64.4406985,0.256923557 143.930782,0.256923557 C223.425492,0.256923557 287.865034,64.6872645 287.865034,144.168311" id="Fill-1" fill="url(#linearGradient-3)" mask="url(#mask-2)"></path>
                    </g>
                    <path d="M122.587786,92.8173641 L211.88258,92.8173641 C213.543298,92.8173641 215.190137,93.0694426 216.75371,93.5273466 L233.557489,93.5319719 C233.018565,86.642597 228.031786,81.2541299 220.977206,81.2541299 L121.003397,81.2541299 C121.997977,82.9400494 122.587786,84.8641716 122.587786,86.9802434 L122.587786,92.8173641 Z" id="Fill-5" fill="#54B98F"></path>
                    <path d="M228.984733,199.199119 L226.671756,199.199119 L226.671756,201.50714 C226.671756,206.70597 223.128275,211.35439 218.458374,213.722541 C228.815885,211.183255 233.298435,203.824412 233.573679,192.261178 L228.984733,192.261178 L228.984733,199.199119 Z" id="Fill-7" fill="#54B98F"></path>
                    <path d="M234.211598,92.8173641 L233.557026,92.8173641 L216.75556,93.1203208 C219.392354,93.8881195 221.777034,95.1300109 223.551087,97.4426577 L230.073682,97.4426577 L230.041301,192.261178 L233.573217,192.261178 L234.179217,192.261178 L234.211598,92.8173641 Z" id="Fill-9" fill="#FFFFFF"></path>
                    <path d="M226.671756,199.199119 L228.984733,199.199119 L228.984733,192.316682 L230.074145,97.4426577 L223.549237,97.4426577 C225.466695,99.7553046 226.671756,102.146581 226.671756,105.164586 L226.671756,199.199119 Z" id="Fill-11" fill="#B8B8BD"></path>
                    <path d="M75.252016,81.2541299 L108.70923,81.2541299 L108.70923,92.8173641 L67.075642,92.8173641 L67.075642,81.2541299 L75.252016,81.2541299 Z M226.671062,201.50714 L226.671062,198.685711 L226.671062,105.164586 C226.671062,102.146581 225.466001,99.5633549 223.550856,97.5421015 C221.776802,95.6711703 219.392123,94.2951454 216.755329,93.5273466 C215.189444,93.0694426 213.542604,92.8173641 211.881886,92.8173641 L122.587092,92.8173641 L122.587092,86.9802434 C122.587092,84.8641716 121.997283,82.9400494 121.005016,81.2541299 C118.488497,76.9919217 113.305115,74.3161893 107.945947,74.3161893 L66.1573901,74.3161893 C58.6841611,74.3161893 53.1977794,79.5057688 53.1977794,86.9802434 L53.1977794,105.164586 L53.1977794,183.320485 L53.1977794,201.50714 C53.1977794,208.979302 58.6841611,215.387646 66.1573901,215.387646 L211.881886,215.387646 C214.157856,215.387646 216.413008,214.788671 218.45768,213.750293 C223.129894,211.382142 226.671062,206.70597 226.671062,201.50714 L226.671062,201.50714 Z" id="Fill-13" fill="#74D1AA"></path>
                    <polygon id="Fill-15" fill="#FFFFFF" points="67.0763359 92.8173641 108.709924 92.8173641 108.709924 81.2541299 75.2527099 81.2541299 67.0763359 81.2541299"></polygon>
                </g>
            </g>
            <ellipse id="Oval-8" stroke="#FFFFFF" cx="31.851145" cy="137.915134" rx="5.78244275" ry="5.7816171"></ellipse>
            <ellipse id="Oval-8-Copy-4" stroke="#FFFFFF" cx="147.5" cy="26.9080855" rx="8.09541985" ry="8.09426393"></ellipse>
            <g id="Page-1" transform="translate(176.412214, 229.264684)">
                <mask id="mask-5" fill="white">
                    <use xlink:href="#path-4"></use>
                </mask>
                <g id="Clip-2"></g>
                <path d="M16.6258666,9.72537375 C16.9360258,9.72537375 17.2461851,9.60665788 17.4824391,9.37043752 L21.4587772,5.39466723 C21.9324969,4.92101513 21.9324969,4.15420752 21.4587772,3.6817668 C20.986269,3.20811471 20.2193519,3.20811471 19.7456322,3.6817668 L15.7692941,7.6575371 C15.2955744,8.1311892 15.2955744,8.89678543 15.7692941,9.37043752 C16.0055482,9.60665788 16.3157074,9.72537375 16.6258666,9.72537375 L16.6258666,9.72537375 Z M7.65911527,15.7665579 L3.68156565,19.7435396 C3.20905747,20.2159803 3.20905747,20.9827879 3.68156565,21.45644 C3.9190313,21.6926604 4.22919051,21.8113763 4.53813817,21.8113763 C4.84829738,21.8113763 5.1584566,21.6926604 5.39471069,21.45644 L9.37226031,17.4794583 C9.84476848,17.0070176 9.84476848,16.24021 9.37226031,15.7665579 C8.89854057,15.2941172 8.13162345,15.2941172 7.65911527,15.7665579 L7.65911527,15.7665579 Z M17.4824391,15.7665579 C17.0087194,15.2941172 16.2430138,15.2941172 15.7692941,15.7665579 C15.2955744,16.24021 15.2955744,17.0070176 15.7692941,17.4794583 L19.7456322,21.45644 C19.9830978,21.6926604 20.2920455,21.8113763 20.6022047,21.8113763 C20.9123639,21.8113763 21.2225231,21.6926604 21.4587772,21.45644 C21.9324969,20.9827879 21.9324969,20.2159803 21.4587772,19.7435396 L17.4824391,15.7665579 Z M5.39471069,3.6817668 C4.92220251,3.20811471 4.15528539,3.20811471 3.68156565,3.6817668 C3.20905747,4.15420752 3.20905747,4.92101513 3.68156565,5.39466723 L7.65911527,9.37043752 C7.89536936,9.60665788 8.20552857,9.72537375 8.51568779,9.72537375 C8.825847,9.72537375 9.13479466,9.60665788 9.37226031,9.37043752 C9.84476848,8.89678543 9.84476848,8.1311892 9.37226031,7.6575371 L5.39471069,3.6817668 Z M23.9291469,11.3571113 L18.3062996,11.3571113 C17.6363072,11.3571113 17.0947401,11.898601 17.0947401,12.5684977 C17.0947401,13.237183 17.6363072,13.7798842 18.3062996,13.7798842 L23.9291469,13.7798842 C24.5991393,13.7798842 25.1407063,13.237183 25.1407063,12.5684977 C25.1407063,11.898601 24.5991393,11.3571113 23.9291469,11.3571113 L23.9291469,11.3571113 Z M8.04681429,12.5684977 C8.04681429,11.898601 7.50524722,11.3571113 6.83525485,11.3571113 L1.21119597,11.3571113 C0.542415158,11.3571113 -0.000363467829,11.898601 -0.000363467829,12.5684977 C-0.000363467829,13.237183 0.542415158,13.7798842 1.21119597,13.7798842 L6.83525485,13.7798842 C7.50524722,13.7798842 8.04681429,13.237183 8.04681429,12.5684977 L8.04681429,12.5684977 Z M12.5695656,17.0918147 C11.9007848,17.0918147 11.3580062,17.6333044 11.3580062,18.3032011 L11.3580062,23.926457 C11.3580062,24.5951423 11.9007848,25.1378434 12.5695656,25.1378434 C13.239558,25.1378434 13.7811251,24.5951423 13.7811251,23.926457 L13.7811251,18.3032011 C13.7811251,17.6333044 13.239558,17.0918147 12.5695656,17.0918147 L12.5695656,17.0918147 Z M12.5695656,0.000363415931 C11.9007848,0.000363415931 11.3580062,0.541853154 11.3580062,1.21174986 L11.3580062,6.83379432 C11.3580062,7.50369102 11.9007848,8.04518076 12.5695656,8.04518076 C13.239558,8.04518076 13.7811251,7.50369102 13.7811251,6.83379432 L13.7811251,1.21174986 C13.7811251,0.541853154 13.239558,0.000363415931 12.5695656,0.000363415931 L12.5695656,0.000363415931 Z" id="Fill-1" fill="#FFFFFF" mask="url(#mask-5)"></path>
            </g>
            <g id="Page-1-Copy-2" transform="translate(63.076336, 39.627643)">
                <mask id="mask-7" fill="white">
                    <use xlink:href="#path-6"></use>
                </mask>
                <g id="Clip-2"></g>
                <path d="M9.06865453,5.30474932 C9.23783228,5.30474932 9.40701003,5.23999521 9.5358759,5.11114774 L11.7047876,2.94254576 C11.9631802,2.68419007 11.9631802,2.26593137 11.7047876,2.00823644 C11.4470558,1.74988075 11.0287374,1.74988075 10.7703448,2.00823644 L8.60143315,4.17683842 C8.34304057,4.43519411 8.34304057,4.85279205 8.60143315,5.11114774 C8.73029902,5.23999521 8.89947677,5.30474932 9.06865453,5.30474932 L9.06865453,5.30474932 Z M4.17769924,8.59994068 L2.00812672,10.7692034 C1.75039498,11.0268984 1.75039498,11.4451571 2.00812672,11.7035127 C2.13765344,11.8323602 2.30683119,11.8971143 2.47534809,11.8971143 C2.64452585,11.8971143 2.8137036,11.8323602 2.94256947,11.7035127 L5.11214198,9.53425001 C5.36987372,9.27655507 5.36987372,8.85829637 5.11214198,8.59994068 C4.8537494,8.34224575 4.43543097,8.34224575 4.17769924,8.59994068 L4.17769924,8.59994068 Z M9.5358759,8.59994068 C9.27748332,8.34224575 8.85982574,8.34224575 8.60143315,8.59994068 C8.34304057,8.85829637 8.34304057,9.27655507 8.60143315,9.53425001 L10.7703448,11.7035127 C10.8998715,11.8323602 11.0683884,11.8971143 11.2375662,11.8971143 C11.4067439,11.8971143 11.5759217,11.8323602 11.7047876,11.7035127 C11.9631802,11.4451571 11.9631802,11.0268984 11.7047876,10.7692034 L9.5358759,8.59994068 Z M2.94256947,2.00823644 C2.68483773,1.74988075 2.2665193,1.74988075 2.00812672,2.00823644 C1.75039498,2.26593137 1.75039498,2.68419007 2.00812672,2.94254576 L4.17769924,5.11114774 C4.3065651,5.23999521 4.47574286,5.30474932 4.64492061,5.30474932 C4.81409836,5.30474932 4.98261527,5.23999521 5.11214198,5.11114774 C5.36987372,4.85279205 5.36987372,4.43519411 5.11214198,4.17683842 L2.94256947,2.00823644 Z M13.0522619,6.19478797 L9.98525431,6.19478797 C9.61980393,6.19478797 9.32440371,6.49014601 9.32440371,6.85554421 C9.32440371,7.22028166 9.61980393,7.51630045 9.98525431,7.51630045 L13.0522619,7.51630045 C13.4177123,7.51630045 13.7131125,7.22028166 13.7131125,6.85554421 C13.7131125,6.49014601 13.4177123,6.19478797 13.0522619,6.19478797 L13.0522619,6.19478797 Z M4.38917143,6.85554421 C4.38917143,6.49014601 4.09377121,6.19478797 3.72832083,6.19478797 L0.660652345,6.19478797 C0.295862814,6.19478797 -0.000198255179,6.49014601 -0.000198255179,6.85554421 C-0.000198255179,7.22028166 0.295862814,7.51630045 0.660652345,7.51630045 L3.72832083,7.51630045 C4.09377121,7.51630045 4.38917143,7.22028166 4.38917143,6.85554421 L4.38917143,6.85554421 Z M6.85612672,9.32280801 C6.49133719,9.32280801 6.19527612,9.61816605 6.19527612,9.98356425 L6.19527612,13.0507947 C6.19527612,13.4155322 6.49133719,13.711551 6.85612672,13.711551 C7.2215771,13.711551 7.51697732,13.4155322 7.51697732,13.0507947 L7.51697732,9.98356425 C7.51697732,9.61816605 7.2215771,9.32280801 6.85612672,9.32280801 L6.85612672,9.32280801 Z M6.85612672,0.000198226872 C6.49133719,0.000198226872 6.19527612,0.295556266 6.19527612,0.660954466 L6.19527612,3.72752417 C6.19527612,4.09292237 6.49133719,4.38828041 6.85612672,4.38828041 C7.2215771,4.38828041 7.51697732,4.09292237 7.51697732,3.72752417 L7.51697732,0.660954466 C7.51697732,0.295556266 7.2215771,0.000198226872 6.85612672,0.000198226872 L6.85612672,0.000198226872 Z" id="Fill-1" fill="#FFFFFF" mask="url(#mask-7)"></path>
            </g>
            <path d="M112.165245,247.125852 L107.662999,247.125852 L107.662999,242.624248 C107.662999,241.632674 106.858128,240.827918 105.866412,240.827918 C104.874696,240.827918 104.069825,241.632674 104.069825,242.624248 L104.069825,247.125852 L99.5675791,247.125852 C98.5758632,247.125852 97.7709924,247.930608 97.7709924,248.922182 C97.7709924,249.913756 98.5758632,250.718512 99.5675791,250.718512 L104.069825,250.718512 L104.069825,255.220116 C104.069825,256.21169 104.874696,257.016446 105.866412,257.016446 C106.858128,257.016446 107.662999,256.21169 107.662999,255.220116 L107.662999,250.718512 L112.165245,250.718512 C113.156961,250.718512 113.961832,249.913756 113.961832,248.922182 C113.961832,247.930608 113.156961,247.125852 112.165245,247.125852" id="Fill-1-Copy-2" fill="#FFFFFF"></path>
            <path d="M216.249215,66.7393984 L211.746968,66.7393984 L211.746968,62.2377948 C211.746968,61.2462206 210.942098,60.4414646 209.950382,60.4414646 C208.958666,60.4414646 208.153795,61.2462206 208.153795,62.2377948 L208.153795,66.7393984 L203.651549,66.7393984 C202.659833,66.7393984 201.854962,67.5441543 201.854962,68.5357286 C201.854962,69.5273028 202.659833,70.3320588 203.651549,70.3320588 L208.153795,70.3320588 L208.153795,74.8336623 C208.153795,75.8252366 208.958666,76.6299925 209.950382,76.6299925 C210.942098,76.6299925 211.746968,75.8252366 211.746968,74.8336623 L211.746968,70.3320588 L216.249215,70.3320588 C217.240931,70.3320588 218.045802,69.5273028 218.045802,68.5357286 C218.045802,67.5441543 217.240931,66.7393984 216.249215,66.7393984" id="Fill-1-Copy-3" fill="#FFFFFF"></path>
            <ellipse id="Oval-8-Copy-2" fill="#FFFFFF" cx="255.053435" cy="143.696751" rx="4.6259542" ry="4.62529368"></ellipse>
            <ellipse id="Oval-8-Copy-5" fill="#FFFFFF" cx="152.125954" cy="54.6598475" rx="3.46946565" ry="3.46897026"></ellipse>
            <ellipse id="Oval-8-Copy-3" fill="#FFFFFF" cx="41.1030534" cy="151.791015" rx="3.46946565" ry="3.46897026"></ellipse>
        </g>
    </g>
</svg>